{
  "accessors": [
    {
      "bufferView": 2,
      "componentType": 5126,
      "count": 276,
      "max": [
        0.076078400015831,
        0.00921356026083231,
        0.47241100668907166
      ],
      "min": [
        -0.0007436519954353571,
        -0.2788650095462799,
        0.33845800161361694
      ],
      "type": "VEC3"
    },
    {
      "bufferView": 2,
      "byteOffset": 3312,
      "componentType": 5126,
      "count": 276,
      "max": [
        0.8796871304512024,
        1.0,
        0.8796871304512024
      ],
      "min": [
        -0.8796875476837158,
        -1.0,
        -0.8796871304512024
      ],
      "type": "VEC3"
    },
    {
      "bufferView": 3,
      "componentType": 5126,
      "count": 276,
      "max": [
        0.8798568248748779,
        0.416201651096344,
        0.8796886801719666,
        1.0
      ],
      "min": [
        -0.8807369470596313,
        -0.0008222294272854924,
        -0.9962623715400696,
        1.0
      ],
      "type": "VEC4"
    },
    {
      "bufferView": 1,
      "componentType": 5126,
      "count": 276,
      "max": [
        0.9970769882202148,
        0.8173980116844177
      ],
      "min": [
        0.0029231500811874866,
        0.0029231500811874866
      ],
      "type": "VEC2"
    },
    {
      "bufferView": 0,
      "componentType": 5125,
      "count": 414,
      "type": "SCALAR"
    },
    {
      "bufferView": 2,
      "byteOffset": 6624,
      "componentType": 5126,
      "count": 4,
      "max": [
        1.0,
        -0.3909919857978821,
        1.0
      ],
      "min": [
        -1.0,
        -0.39099299907684326,
        -1.0
      ],
      "type": "VEC3"
    },
    {
      "bufferView": 2,
      "byteOffset": 6672,
      "componentType": 5126,
      "count": 4,
      "max": [
        0.0,
        1.0,
        -1.6292099758175027e-07
      ],
      "min": [
        0.0,
        1.0,
        -1.6292099758175027e-07
      ],
      "type": "VEC3"
    },
    {
      "bufferView": 3,
      "byteOffset": 4416,
      "componentType": 5126,
      "count": 4,
      "max": [
        1.0,
        0.0,
        0.0,
        1.0
      ],
      "min": [
        1.0,
        0.0,
        0.0,
        1.0
      ],
      "type": "VEC4"
    },
    {
      "bufferView": 1,
      "byteOffset": 2208,
      "componentType": 5126,
      "count": 4,
      "max": [
        1.0,
        1.0
      ],
      "min": [
        0.0,
        0.0
      ],
      "type": "VEC2"
    },
    {
      "bufferView": 0,
      "byteOffset": 1656,
      "componentType": 5125,
      "count": 6,
      "type": "SCALAR"
    },
    {
      "bufferView": 2,
      "byteOffset": 6720,
      "componentType": 5126,
      "count": 784,
      "max": [
        0.41433200240135193,
        0.014053599908947945,
        0.5443419814109802
      ],
      "min": [
        -0.41433200240135193,
        -0.3906570076942444,
        -0.4121769964694977
      ],
      "type": "VEC3"
    },
    {
      "bufferView": 2,
      "byteOffset": 16128,
      "componentType": 5126,
      "count": 784,
      "max": [
        1.0,
        1.0,
        1.0
      ],
      "min": [
        -1.0,
        -1.0,
        -1.0
      ],
      "type": "VEC3"
    },
    {
      "bufferView": 3,
      "byteOffset": 4480,
      "componentType": 5126,
      "count": 784,
      "max": [
        1.0,
        1.0,
        1.0,
        1.0
      ],
      "min": [
        -1.0,
        -1.0,
        -1.0,
        1.0
      ],
      "type": "VEC4"
    },
    {
      "bufferView": 1,
      "byteOffset": 2240,
      "componentType": 5126,
      "count": 784,
      "max": [
        0.969461977481842,
        0.9957119822502136
      ],
      "min": [
        0.0042877402156591415,
        0.0042877402156591415
      ],
      "type": "VEC2"
    },
    {
      "bufferView": 0,
      "byteOffset": 1680,
      "componentType": 5125,
      "count": 1176,
      "type": "SCALAR"
    },
    {
      "bufferView": 2,
      "byteOffset": 25536,
      "componentType": 5126,
      "count": 8112,
      "max": [
        0.41093799471855164,
        0.349494993686676,
        0.33271899819374084
      ],
      "min": [
        -0.41093799471855164,
        0.059428900480270386,
        -0.36787599325180054
      ],
      "type": "VEC3"
    },
    {
      "bufferView": 2,
      "byteOffset": 122880,
      "componentType": 5126,
      "count": 8112,
      "max": [
        0.8835171461105347,
        0.8846641182899475,
        1.0
      ],
      "min": [
        -0.8835171461105347,
        -0.8846641182899475,
        -1.0
      ],
      "type": "VEC3"
    },
    {
      "bufferView": 3,
      "byteOffset": 17024,
      "componentType": 5126,
      "count": 8112,
      "max": [
        0.8846641778945923,
        0.8839158415794373,
        1.0,
        1.0
      ],
      "min": [
        -0.8846641778945923,
        -0.8838953375816345,
        -1.0,
        1.0
      ],
      "type": "VEC4"
    },
    {
      "bufferView": 1,
      "byteOffset": 8512,
      "componentType": 5126,
      "count": 8112,
      "max": [
        0.9983689785003662,
        0.9974449872970581
      ],
      "min": [
        0.0016311600338667631,
        0.0016311600338667631
      ],
      "type": "VEC2"
    },
    {
      "bufferView": 0,
      "byteOffset": 6384,
      "componentType": 5125,
      "count": 12168,
      "type": "SCALAR"
    },
    {
      "bufferView": 2,
      "byteOffset": 220224,
      "componentType": 5126,
      "count": 2416,
      "max": [
        0.3794580101966858,
        0.3449299931526184,
        0.34077098965644836
      ],
      "min": [
        -0.37795400619506836,
        -0.28224000334739685,
        -0.38071098923683167
      ],
      "type": "VEC3"
    },
    {
      "bufferView": 2,
      "byteOffset": 249216,
      "componentType": 5126,
      "count": 2416,
      "max": [
        1.0,
        1.0,
        1.0
      ],
      "min": [
        -1.0,
        -1.445490056539711e-06,
        -1.0
      ],
      "type": "VEC3"
    },
    {
      "bufferView": 3,
      "byteOffset": 146816,
      "componentType": 5126,
      "count": 2416,
      "max": [
        1.0,
        1.0,
        1.0,
        1.0
      ],
      "min": [
        -1.0,
        -1.0,
        -1.0,
        1.0
      ],
      "type": "VEC4"
    },
    {
      "bufferView": 1,
      "byteOffset": 73408,
      "componentType": 5126,
      "count": 2416,
      "max": [
        0.9914960265159607,
        0.9859099984169006
      ],
      "min": [
        0.008503790013492107,
        0.008503790013492107
      ],
      "type": "VEC2"
    },
    {
      "bufferView": 0,
      "byteOffset": 55056,
      "componentType": 5125,
      "count": 3624,
      "type": "SCALAR"
    },
    {
      "bufferView": 2,
      "byteOffset": 278208,
      "componentType": 5126,
      "count": 364,
      "max": [
        0.42106199264526367,
        0.27361899614334106,
        0.42106199264526367
      ],
      "min": [
        -0.44613900780677795,
        -0.39099299907684326,
        -0.42106199264526367
      ],
      "type": "VEC3"
    },
    {
      "bufferView": 2,
      "byteOffset": 282576,
      "componentType": 5126,
      "count": 364,
      "max": [
        1.0,
        1.0,
        1.0
      ],
      "min": [
        -1.0,
        -1.0,
        -1.0
      ],
      "type": "VEC3"
    },
    {
      "bufferView": 3,
      "byteOffset": 185472,
      "componentType": 5126,
      "count": 364,
      "max": [
        1.0,
        1.0,
        1.0,
        1.0
      ],
      "min": [
        -1.0,
        -1.0,
        -1.0,
        1.0
      ],
      "type": "VEC4"
    },
    {
      "bufferView": 1,
      "byteOffset": 92736,
      "componentType": 5126,
      "count": 364,
      "max": [
        0.7739239931106567,
        0.997223973274231
      ],
      "min": [
        0.0027763100806623697,
        0.0027763100806623697
      ],
      "type": "VEC2"
    },
    {
      "bufferView": 0,
      "byteOffset": 69552,
      "componentType": 5125,
      "count": 558,
      "type": "SCALAR"
    },
    {
      "bufferView": 2,
      "byteOffset": 286944,
      "componentType": 5126,
      "count": 8,
      "max": [
        -0.10283499956130981,
        0.008376739919185638,
        0.3348720073699951
      ],
      "min": [
        -0.24470899999141693,
        -0.1495950073003769,
        0.3340910077095032
      ],
      "type": "VEC3"
    },
    {
      "bufferView": 2,
      "byteOffset": 287040,
      "componentType": 5126,
      "count": 8,
      "max": [
        0.0,
        1.6292099758175027e-07,
        1.0
      ],
      "min": [
        0.0,
        -1.6292099758175027e-07,
        -1.0
      ],
      "type": "VEC3"
    },
    {
      "bufferView": 3,
      "byteOffset": 191296,
      "componentType": 5126,
      "count": 8,
      "max": [
        -1.0,
        1.8073754404213105e-07,
        0.0,
        1.0
      ],
      "min": [
        -1.0,
        0.0,
        -2.944594167022391e-14,
        1.0
      ],
      "type": "VEC4"
    },
    {
      "bufferView": 1,
      "byteOffset": 95648,
      "componentType": 5126,
      "count": 8,
      "max": [
        0.9989489912986755,
        0.5554440021514893
      ],
      "min": [
        0.0010507700499147177,
        0.0010507700499147177
      ],
      "type": "VEC2"
    },
    {
      "bufferView": 0,
      "byteOffset": 71784,
      "componentType": 5125,
      "count": 12,
      "type": "SCALAR"
    },
    {
      "bufferView": 2,
      "byteOffset": 287136,
      "componentType": 5126,
      "count": 1096,
      "max": [
        0.42096999287605286,
        0.39099299907684326,
        0.4165650010108948
      ],
      "min": [
        -0.42096999287605286,
        -0.3019790053367615,
        -0.4565509855747223
      ],
      "type": "VEC3"
    },
    {
      "bufferView": 2,
      "byteOffset": 300288,
      "componentType": 5126,
      "count": 1096,
      "max": [
        1.0,
        1.0,
        1.0
      ],
      "min": [
        -1.0,
        -1.0,
        -1.0
      ],
      "type": "VEC3"
    },
    {
      "bufferView": 3,
      "byteOffset": 191424,
      "componentType": 5126,
      "count": 1096,
      "max": [
        1.0,
        1.0,
        1.0,
        1.0
      ],
      "min": [
        -1.0,
        -1.0,
        -1.0,
        1.0
      ],
      "type": "VEC4"
    },
    {
      "bufferView": 1,
      "byteOffset": 95712,
      "componentType": 5126,
      "count": 1096,
      "max": [
        0.9944120049476624,
        0.9691870212554932
      ],
      "min": [
        0.005587609950453043,
        0.005587609950453043
      ],
      "type": "VEC2"
    },
    {
      "bufferView": 0,
      "byteOffset": 71832,
      "componentType": 5125,
      "count": 1644,
      "type": "SCALAR"
    }
  ],
  "asset": {
    "extras": {
      "author": "DireRaven (https://sketchfab.com/direraven)",
      "license": "CC-BY-4.0 (http://creativecommons.org/licenses/by/4.0/)",
      "source": "https://sketchfab.com/3d-models/simple-medieval-house-7ff2c36064df49038285d346d01c06d0",
      "title": "Simple Medieval House"
    },
    "generator": "Sketchfab-12.68.0",
    "version": "2.0"
  },
  "bufferViews": [
    {
      "buffer": 0,
      "byteLength": 78408,
      "name": "floatBufferViews",
      "target": 34963
    },
    {
      "buffer": 0,
      "byteLength": 104480,
      "byteOffset": 78408,
      "byteStride": 8,
      "name": "floatBufferViews",
      "target": 34962
    },
    {
      "buffer": 0,
      "byteLength": 313440,
      "byteOffset": 182888,
      "byteStride": 12,
      "name": "floatBufferViews",
      "target": 34962
    },
    {
      "buffer": 0,
      "byteLength": 208960,
      "byteOffset": 496328,
      "byteStride": 16,
      "name": "floatBufferViews",
      "target": 34962
    }
  ],
  "buffers": [
    {
      "byteLength": 705288,
      "uri": "scene.bin"
    }
  ],
  "images": [
    {
      "uri": "textures/Wood_Supports_baseColor.jpeg"
    },
    {
      "uri": "textures/Wood_Supports_metallicRoughness.png"
    },
    {
      "uri": "textures/Wood_Supports_normal.png"
    },
    {
      "uri": "textures/Window_baseColor.png"
    },
    {
      "uri": "textures/Window_metallicRoughness.png"
    },
    {
      "uri": "textures/Window_normal.png"
    },
    {
      "uri": "textures/Stone___Chimeny_baseColor.jpeg"
    },
    {
      "uri": "textures/Stone___Chimeny_metallicRoughness.png"
    },
    {
      "uri": "textures/Stone___Chimeny_normal.png"
    },
    {
      "uri": "textures/Planks_Fill_baseColor.jpeg"
    },
    {
      "uri": "textures/Planks_Fill_metallicRoughness.png"
    },
    {
      "uri": "textures/Planks_Fill_normal.png"
    },
    {
      "uri": "textures/Roof_baseColor.jpeg"
    },
    {
      "uri": "textures/Roof_metallicRoughness.png"
    },
    {
      "uri": "textures/Roof_normal.png"
    },
    {
      "uri": "textures/Foor___Window_baseColor.jpeg"
    },
    {
      "uri": "textures/Foor___Window_metallicRoughness.png"
    },
    {
      "uri": "textures/Foor___Window_normal.png"
    },
    {
      "uri": "textures/Floor_baseColor.jpeg"
    },
    {
      "uri": "textures/Floor_metallicRoughness.png"
    },
    {
      "uri": "textures/Floor_normal.png"
    },
    {
      "uri": "textures/Door_baseColor.jpeg"
    },
    {
      "uri": "textures/Door_metallicRoughness.png"
    },
    {
      "uri": "textures/Door_normal.png"
    }
  ],
  "materials": [
    {
      "doubleSided": true,
      "name": "Wood_Supports",
      "normalTexture": {
        "index": 2,
        "scale": 0.5
      },
      "occlusionTexture": {
        "index": 1
      },
      "pbrMetallicRoughness": {
        "baseColorTexture": {
          "index": 0
        },
        "metallicRoughnessTexture": {
          "index": 1
        }
      }
    },
    {
      "alphaMode": "BLEND",
      "doubleSided": true,
      "name": "Window",
      "normalTexture": {
        "index": 5
      },
      "occlusionTexture": {
        "index": 4
      },
      "pbrMetallicRoughness": {
        "baseColorFactor": [
          0.05530228571927667,
          0.10077147135504352,
          0.20594136762876553,
          1.0
        ],
        "baseColorTexture": {
          "index": 3
        },
        "metallicRoughnessTexture": {
          "index": 4
        }
      }
    },
    {
      "doubleSided": true,
      "name": "Stone___Chimeny",
      "normalTexture": {
        "index": 8
      },
      "occlusionTexture": {
        "index": 7
      },
      "pbrMetallicRoughness": {
        "baseColorTexture": {
          "index": 6
        },
        "metallicRoughnessTexture": {
          "index": 7
        }
      }
    },
    {
      "doubleSided": true,
      "name": "Planks_Fill",
      "normalTexture": {
        "index": 11,
        "scale": 0.5
      },
      "occlusionTexture": {
        "index": 10
      },
      "pbrMetallicRoughness": {
        "baseColorTexture": {
          "index": 9
        },
        "metallicRoughnessTexture": {
          "index": 10
        }
      }
    },
    {
      "doubleSided": true,
      "name": "Roof",
      "normalTexture": {
        "index": 14
      },
      "occlusionTexture": {
        "index": 13
      },
      "pbrMetallicRoughness": {
        "baseColorTexture": {
          "index": 12
        },
        "metallicRoughnessTexture": {
          "index": 13
        }
      }
    },
    {
      "doubleSided": true,
      "name": "Foor___Window",
      "normalTexture": {
        "index": 17,
        "scale": 0.5
      },
      "occlusionTexture": {
        "index": 16
      },
      "pbrMetallicRoughness": {
        "baseColorTexture": {
          "index": 15
        },
        "metallicRoughnessTexture": {
          "index": 16
        }
      }
    },
    {
      "name": "Floor",
      "normalTexture": {
        "index": 20
      },
      "occlusionTexture": {
        "index": 19
      },
      "pbrMetallicRoughness": {
        "baseColorTexture": {
          "index": 18
        },
        "metallicRoughnessTexture": {
          "index": 19
        }
      }
    },
    {
      "doubleSided": true,
      "name": "Door",
      "normalTexture": {
        "index": 23,
        "scale": 0.5
      },
      "occlusionTexture": {
        "index": 22
      },
      "pbrMetallicRoughness": {
        "baseColorTexture": {
          "index": 21
        },
        "metallicRoughnessTexture": {
          "index": 22
        }
      }
    }
  ],
  "meshes": [
    {
      "name": "defaultMaterial",
      "primitives": [
        {
          "attributes": {
            "NORMAL": 1,
            "POSITION": 0,
            "TANGENT": 2,
            "TEXCOORD_0": 3
          },
          "indices": 4,
          "material": 7,
          "mode": 4
        }
      ]
    },
    {
      "name": "defaultMaterial",
      "primitives": [
        {
          "attributes": {
            "NORMAL": 6,
            "POSITION": 5,
            "TANGENT": 7,
            "TEXCOORD_0": 8
          },
          "indices": 9,
          "material": 6,
          "mode": 4
        }
      ]
    },
    {
      "name": "defaultMaterial",
      "primitives": [
        {
          "attributes": {
            "NORMAL": 11,
            "POSITION": 10,
            "TANGENT": 12,
            "TEXCOORD_0": 13
          },
          "indices": 14,
          "material": 5,
          "mode": 4
        }
      ]
    },
    {
      "name": "defaultMaterial",
      "primitives": [
        {
          "attributes": {
            "NORMAL": 16,
            "POSITION": 15,
            "TANGENT": 17,
            "TEXCOORD_0": 18
          },
          "indices": 19,
          "material": 4,
          "mode": 4
        }
      ]
    },
    {
      "name": "defaultMaterial",
      "primitives": [
        {
          "attributes": {
            "NORMAL": 21,
            "POSITION": 20,
            "TANGENT": 22,
            "TEXCOORD_0": 23
          },
          "indices": 24,
          "material": 3,
          "mode": 4
        }
      ]
    },
    {
      "name": "defaultMaterial",
      "primitives": [
        {
          "attributes": {
            "NORMAL": 26,
            "POSITION": 25,
            "TANGENT": 27,
            "TEXCOORD_0": 28
          },
          "indices": 29,
          "material": 2,
          "mode": 4
        }
      ]
    },
    {
      "name": "defaultMaterial",
      "primitives": [
        {
          "attributes": {
            "NORMAL": 31,
            "POSITION": 30,
            "TANGENT": 32,
            "TEXCOORD_0": 33
          },
          "indices": 34,
          "material": 1,
          "mode": 4
        }
      ]
    },
    {
      "name": "defaultMaterial",
      "primitives": [
        {
          "attributes": {
            "NORMAL": 36,
            "POSITION": 35,
            "TANGENT": 37,
            "TEXCOORD_0": 38
          },
          "indices": 39,
          "material": 0,
          "mode": 4
        }
      ]
    }
  ],
  "nodes": [
    {
      "children": [
        1
      ],
      "matrix": [
        1.0,
        0.0,
        0.0,
        0.0,
        0.0,
        2.220446049250313e-16,
        -1.0,
        0.0,
        0.0,
        1.0,
        2.220446049250313e-16,
        0.0,
        0.0,
        -1.482229117222289e-09,
        -3.291209787420011e-25,
        1.0
      ],
      "name": "Sketchfab_model"
    },
    {
      "children": [
        2,
        4,
        6,
        8,
        10,
        12,
        14,
        16
      ],
      "matrix": [
        1.0,
        0.0,
        0.0,
        0.0,
        0.0,
        -4.371139006309477e-08,
        0.999999999999999,
        0.0,
        0.0,
        -0.999999999999999,
        -4.371139006309477e-08,
        0.0,
        0.0,
        0.0,
        0.0,
        1.0
      ],
      "name": "Collada visual scene group"
    },
    {
      "children": [
        3
      ],
      "name": "Door"
    },
    {
      "mesh": 0,
      "name": "defaultMaterial"
    },
    {
      "children": [
        5
      ],
      "name": "Floor"
    },
    {
      "mesh": 1,
      "name": "defaultMaterial"
    },
    {
      "children": [
        7
      ],
      "name": "Simple"
    },
    {
      "mesh": 2,
      "name": "defaultMaterial"
    },
    {
      "children": [
        9
      ],
      "name": "Simple"
    },
    {
      "mesh": 3,
      "name": "defaultMaterial"
    },
    {
      "children": [
        11
      ],
      "name": "Simple"
    },
    {
      "mesh": 4,
      "name": "defaultMaterial"
    },
    {
      "children": [
        13
      ],
      "name": "Simple"
    },
    {
      "mesh": 5,
      "name": "defaultMaterial"
    },
    {
      "children": [
        15
      ],
      "name": "Simple"
    },
    {
      "mesh": 6,
      "name": "defaultMaterial"
    },
    {
      "children": [
        17
      ],
      "name": "Simple"
    },
    {
      "mesh": 7,
      "name": "defaultMaterial"
    }
  ],
  "samplers": [
    {
      "magFilter": 9729,
      "minFilter": 9987,
      "wrapS": 10497,
      "wrapT": 10497
    }
  ],
  "scene": 0,
  "scenes": [
    {
      "name": "Sketchfab_Scene",
      "nodes": [
        0
      ]
    }
  ],
  "textures": [
    {
      "sampler": 0,
      "source": 0
    },
    {
      "sampler": 0,
      "source": 1
    },
    {
      "sampler": 0,
      "source": 2
    },
    {
      "sampler": 0,
      "source": 3
    },
    {
      "sampler": 0,
      "source": 4
    },
    {
      "sampler": 0,
      "source": 5
    },
    {
      "sampler": 0,
      "source": 6
    },
    {
      "sampler": 0,
      "source": 7
    },
    {
      "sampler": 0,
      "source": 8
    },
    {
      "sampler": 0,
      "source": 9
    },
    {
      "sampler": 0,
      "source": 10
    },
    {
      "sampler": 0,
      "source": 11
    },
    {
      "sampler": 0,
      "source": 12
    },
    {
      "sampler": 0,
      "source": 13
    },
    {
      "sampler": 0,
      "source": 14
    },
    {
      "sampler": 0,
      "source": 15
    },
    {
      "sampler": 0,
      "source": 16
    },
    {
      "sampler": 0,
      "source": 17
    },
    {
      "sampler": 0,
      "source": 18
    },
    {
      "sampler": 0,
      "source": 19
    },
    {
      "sampler": 0,
      "source": 20
    },
    {
      "sampler": 0,
      "source": 21
    },
    {
      "sampler": 0,
      "source": 22
    },
    {
      "sampler": 0,
      "source": 23
    }
  ]
}
