{
  "accessors": [
    {
      "bufferView": 1,
      "componentType": 5126,
      "count": 4328,
      "max": [
        5.563440264033659e-10,
        49.325260162353516,
        49.99747085571289
      ],
      "min": [
        -15.0,
        -49.325260162353516,
        -49.99747085571289
      ],
      "type": "VEC3"
    },
    {
      "bufferView": 1,
      "byteOffset": 51936,
      "componentType": 5126,
      "count": 4328,
      "max": [
        1.0,
        0.9998676776885986,
        0.9999898076057434
      ],
      "min": [
        -1.0,
        -0.9998676180839539,
        -0.999989926815033
      ],
      "type": "VEC3"
    },
    {
      "bufferView": 0,
      "componentType": 5125,
      "count": 21048,
      "type": "SCALAR"
    }
  ],
  "asset": {
    "extras": {
      "author": "fasteng (https://sketchfab.com/fasteng)",
      "license": "CC-BY-4.0 (http://creativecommons.org/licenses/by/4.0/)",
      "source": "https://sketchfab.com/3d-models/propeller-6-48602ce0a3ec47b8b3d8d82827a99c75",
      "title": "Propeller-6"
    },
    "generator": "Sketchfab-14.77.0",
    "version": "2.0"
  },
  "bufferViews": [
    {
      "buffer": 0,
      "byteLength": 84192,
      "name": "floatBufferViews",
      "target": 34963
    },
    {
      "buffer": 0,
      "byteLength": 103872,
      "byteOffset": 84192,
      "byteStride": 12,
      "name": "floatBufferViews",
      "target": 34962
    }
  ],
  "buffers": [
    {
      "byteLength": 188064,
      "uri": "scene.bin"
    }
  ],
  "materials": [
    {
      "doubleSided": true,
      "name": "Scene_-_Root",
      "pbrMetallicRoughness": {
        "baseColorFactor": [
          0.8627371965210713,
          0.005127763170849672,
          0.005127763170849672,
          1.0
        ],
        "metallicFactor": 0.0,
        "roughnessFactor": 0.026759566579318772
      }
    }
  ],
  "meshes": [
    {
      "name": "Object_0",
      "primitives": [
        {
          "attributes": {
            "NORMAL": 1,
            "POSITION": 0
          },
          "indices": 2,
          "material": 0,
          "mode": 4
        }
      ]
    }
  ],
  "nodes": [
    {
      "children": [
        1
      ],
      "matrix": [
        1.0,
        0.0,
        0.0,
        0.0,
        0.0,
        2.220446049250313e-16,
        -1.0,
        0.0,
        0.0,
        1.0,
        2.220446049250313e-16,
        0.0,
        0.0,
        0.0,
        0.0,
        1.0
      ],
      "name": "Sketchfab_model"
    },
    {
      "children": [
        2
      ],
      "name": "propeller-6.stl.cleaner.materialmerger.gles"
    },
    {
      "mesh": 0,
      "name": "Object_2"
    }
  ],
  "scene": 0,
  "scenes": [
    {
      "name": "Sketchfab_Scene",
      "nodes": [
        0
      ]
    }
  ]
}
